<?xml version="1.0" standalone="no"?>
<!DOCTYPE svg PUBLIC "-//W3C//DTD SVG 20010904//EN"
 "http://www.w3.org/TR/2001/REC-SVG-20010904/DTD/svg10.dtd">
<svg version="1.0" xmlns="http://www.w3.org/2000/svg"
 width="421.000000pt" height="421.000000pt" viewBox="0 0 421.000000 421.000000"
 preserveAspectRatio="xMidYMid meet">
<metadata>
Created by potrace 1.11, written by Peter Selinger 2001-2013
</metadata>
<g transform="translate(0.000000,421.000000) scale(0.100000,-0.100000)"
fill="#000000" stroke="none">
<path d="M1805 3852 c-33 -7 -64 -15 -70 -16 -18 -5 -69 -26 -114 -48 -28 -14
-69 -22 -113 -24 -88 -4 -137 -18 -218 -60 -87 -47 -118 -70 -160 -120 -19
-23 -56 -54 -81 -68 -38 -21 -46 -30 -45 -53 1 -16 -4 -37 -11 -48 -7 -11 -13
-25 -13 -33 0 -7 -9 -22 -20 -34 -11 -12 -20 -28 -20 -35 0 -7 -4 -13 -10 -13
-5 0 -9 -3 -8 -7 1 -5 -6 -23 -15 -40 -10 -18 -15 -33 -12 -33 3 0 0 -10 -7
-22 -7 -13 -13 -25 -13 -28 -1 -3 -7 -18 -14 -35 -53 -124 -56 -150 -56 -512
0 -165 -2 -298 -5 -294 -22 33 -85 0 -96 -49 -6 -31 -6 -149 1 -160 3 -4 7
-36 9 -71 7 -92 42 -232 63 -247 10 -7 26 -19 36 -27 9 -8 29 -15 42 -15 14 0
27 -6 29 -12 2 -7 14 -60 26 -118 40 -189 80 -281 152 -351 34 -33 118 -86
118 -74 0 3 11 -2 25 -11 14 -9 25 -13 25 -10 0 4 13 0 30 -9 16 -8 32 -15 35
-15 3 0 6 0 8 -1 37 -11 146 -36 192 -44 17 -3 44 -7 60 -10 37 -6 302 -7 330
-2 20 5 142 21 159 22 4 0 9 -38 11 -85 4 -128 16 -183 61 -270 51 -101 193
-199 329 -226 11 -2 31 -6 45 -9 104 -24 221 -11 307 34 49 25 143 117 143
140 0 5 4 11 8 13 9 3 82 148 82 161 0 5 8 27 19 50 28 65 34 81 33 89 -1 4
13 22 31 40 41 41 64 98 73 176 7 67 -2 92 -47 133 -29 26 -40 30 -96 30 -27
0 -33 5 -43 33 -13 40 -44 70 -90 89 -35 15 -49 15 -89 2 -27 -8 -27 -1 4 39
14 18 25 36 25 40 0 4 6 14 13 21 25 29 34 42 80 118 26 43 47 82 47 87 0 6 4
10 8 10 12 0 42 73 42 101 0 34 -33 80 -67 94 -44 19 -82 10 -115 -27 l-30
-33 6 30 c4 17 9 41 12 55 3 14 8 62 11 107 5 70 3 88 -16 127 -12 24 -30 46
-39 48 -20 5 -62 -11 -62 -24 0 -4 -7 -8 -16 -8 -9 0 -12 5 -8 12 10 16 13 67
14 283 2 302 -11 386 -86 543 -25 53 -48 117 -51 142 -5 45 -4 47 29 62 18 9
43 19 56 23 31 9 28 31 -12 79 -108 131 -201 192 -358 236 -38 11 -73 19 -77
18 -3 -1 -22 2 -41 6 -58 12 -74 14 -98 15 -20 1 -21 3 -11 22 15 30 22 76 11
83 -5 3 -22 8 -38 10 -16 3 -40 8 -54 11 -53 12 -138 11 -195 -3z m879 -2107
c-4 -8 -10 -15 -15 -15 -5 0 -9 -5 -9 -11 0 -10 -24 -39 -33 -39 -3 0 2 18 10
40 11 26 22 40 34 40 12 0 16 -5 13 -15z"/>
</g>
</svg>
